<svg data-v-423bf9ae="" xmlns="http://www.w3.org/2000/svg" viewBox="0 0 296 90" class="iconLeft"><!----><defs data-v-423bf9ae=""><linearGradient data-v-423bf9ae="" gradientTransform="rotate(25)" id="4485f5ad-cbd4-4e7a-91ba-7c49ee4bb49a" x1="0%" y1="0%" x2="100%" y2="0%"><stop data-v-423bf9ae="" offset="0%" style="stop-color: rgb(87, 72, 81); stop-opacity: 1;"></stop><stop data-v-423bf9ae="" offset="100%" style="stop-color: rgb(149, 168, 177); stop-opacity: 1;"></stop></linearGradient></defs><!----><g data-v-423bf9ae="" id="7d527b65-29f7-44fc-8c93-6d0e4162796a" fill="#ffffff" transform="matrix(5.639098067841383,0,0,5.639098067841383,113.2835366335807,-1.9736834614938772)"><path d="M2.80 13.65L2.80 13.65Q1.99 13.65 1.38 13.46L1.38 13.46L1.38 13.46Q0.77 13.27 0.45 13.05L0.45 13.05L0.60 11.83L0.60 11.83Q0.88 12.08 1.46 12.31L1.46 12.31L1.46 12.31Q2.04 12.53 2.74 12.53L2.74 12.53L2.74 12.53Q3.40 12.53 3.76 12.31L3.76 12.31L3.76 12.31Q4.12 12.08 4.12 11.68L4.12 11.68L4.12 11.68Q4.12 11.20 3.72 10.96L3.72 10.96L3.72 10.96Q3.33 10.71 2.74 10.54L2.74 10.54L2.74 10.54Q2.10 10.37 1.66 10.18L1.66 10.18L1.66 10.18Q1.22 10.00 0.90 9.60L0.90 9.60L0.90 9.60Q0.59 9.21 0.59 8.57L0.59 8.57L0.59 8.57Q0.59 7.69 1.22 7.10L1.22 7.10L1.22 7.10Q1.85 6.51 3.16 6.51L3.16 6.51L3.16 6.51Q3.77 6.51 4.19 6.63L4.19 6.63L4.19 6.63Q4.61 6.75 5.03 6.96L5.03 6.96L4.87 8.11L4.87 8.11Q4.54 7.83 4.13 7.67L4.13 7.67L4.13 7.67Q3.72 7.50 3.19 7.50L3.19 7.50L3.19 7.50Q2.58 7.50 2.22 7.73L2.22 7.73L2.22 7.73Q1.86 7.97 1.86 8.43L1.86 8.43L1.86 8.43Q1.86 8.74 2.03 8.93L2.03 8.93L2.03 8.93Q2.20 9.11 2.51 9.24L2.51 9.24L2.51 9.24Q2.81 9.37 3.46 9.56L3.46 9.56L3.46 9.56Q4.26 9.80 4.84 10.23L4.84 10.23L4.84 10.23Q5.42 10.67 5.42 11.61L5.42 11.61L5.42 11.61Q5.42 12.45 4.82 13.05L4.82 13.05L4.82 13.05Q4.23 13.65 2.80 13.65L2.80 13.65ZM10.02 6.51L10.02 6.51Q10.95 6.51 11.66 7L11.66 7L11.66 7Q12.36 7.49 12.74 8.31L12.74 8.31L12.74 8.31Q13.12 9.13 13.12 10.08L13.12 10.08L13.12 10.08Q13.12 11.06 12.71 11.88L12.71 11.88L12.71 11.88Q12.29 12.70 11.59 13.17L11.59 13.17L11.59 13.17Q10.88 13.65 10.02 13.65L10.02 13.65L10.02 13.65Q9.39 13.65 8.81 13.39L8.81 13.39L8.81 13.39Q8.22 13.13 7.90 12.67L7.90 12.67L7.76 13.51L6.64 13.51L6.64 3.01L7.90 3.01L7.90 7.45L7.90 7.45Q8.27 7.01 8.84 6.76L8.84 6.76L8.84 6.76Q9.41 6.51 10.02 6.51L10.02 6.51ZM9.87 12.53L9.87 12.53Q10.75 12.53 11.29 11.82L11.29 11.82L11.29 11.82Q11.83 11.12 11.83 10.08L11.83 10.08L11.83 10.08Q11.83 9.02 11.29 8.32L11.29 8.32L11.29 8.32Q10.75 7.63 9.87 7.63L9.87 7.63L9.87 7.63Q9.00 7.63 8.41 8.27L8.41 8.27L8.41 8.27Q7.83 8.90 7.83 10.08L7.83 10.08L7.83 10.08Q7.83 11.30 8.41 11.91L8.41 11.91L8.41 11.91Q8.99 12.53 9.87 12.53L9.87 12.53ZM17.71 13.65L17.71 13.65Q16.53 13.65 15.70 13.17L15.70 13.17L15.70 13.17Q14.87 12.68 14.43 11.86L14.43 11.86L14.43 11.86Q14 11.03 14 10.02L14 10.02L14 10.02Q14 9.06 14.40 8.25L14.40 8.25L14.40 8.25Q14.80 7.45 15.56 6.98L15.56 6.98L15.56 6.98Q16.32 6.51 17.36 6.51L17.36 6.51L17.36 6.51Q18.68 6.51 19.50 7.28L19.50 7.28L19.50 7.28Q20.31 8.05 20.31 9.41L20.31 9.41L20.31 9.41Q20.31 9.76 20.26 10.08L20.26 10.08L15.29 10.08L15.29 10.08Q15.41 11.41 16.10 11.97L16.10 11.97L16.10 11.97Q16.79 12.53 17.86 12.53L17.86 12.53L17.86 12.53Q18.94 12.53 19.84 12.12L19.84 12.12L20.01 13.12L20.01 13.12Q18.82 13.65 17.71 13.65L17.71 13.65ZM15.40 9.21L19.01 9.21L19.01 9.21Q19.01 8.47 18.59 8.05L18.59 8.05L18.59 8.05Q18.17 7.63 17.33 7.63L17.33 7.63L17.33 7.63Q16.52 7.63 16.06 8.03L16.06 8.03L16.06 8.03Q15.60 8.43 15.40 9.21L15.40 9.21ZM24.88 13.65L24.88 13.65Q23.70 13.65 22.87 13.17L22.87 13.17L22.87 13.17Q22.04 12.68 21.60 11.86L21.60 11.86L21.60 11.86Q21.17 11.03 21.17 10.02L21.17 10.02L21.17 10.02Q21.17 9.06 21.57 8.25L21.57 8.25L21.57 8.25Q21.97 7.45 22.73 6.98L22.73 6.98L22.73 6.98Q23.49 6.51 24.53 6.51L24.53 6.51L24.53 6.51Q25.84 6.51 26.66 7.28L26.66 7.28L26.66 7.28Q27.48 8.05 27.48 9.41L27.48 9.41L27.48 9.41Q27.48 9.76 27.43 10.08L27.43 10.08L22.46 10.08L22.46 10.08Q22.58 11.41 23.27 11.97L23.27 11.97L23.27 11.97Q23.95 12.53 25.03 12.53L25.03 12.53L25.03 12.53Q26.11 12.53 27.01 12.12L27.01 12.12L27.17 13.12L27.17 13.12Q25.98 13.65 24.88 13.65L24.88 13.65ZM22.57 9.21L26.18 9.21L26.18 9.21Q26.18 8.47 25.76 8.05L25.76 8.05L25.76 8.05Q25.34 7.63 24.50 7.63L24.50 7.63L24.50 7.63Q23.69 7.63 23.23 8.03L23.23 8.03L23.23 8.03Q22.76 8.43 22.57 9.21L22.57 9.21ZM28.76 13.51L28.76 6.65L29.79 6.65L29.95 7.78L29.95 7.78Q30.48 7.13 30.96 6.82L30.96 6.82L30.96 6.82Q31.44 6.51 31.98 6.51L31.98 6.51L31.98 6.51Q32.14 6.51 32.30 6.55L32.30 6.55L32.17 7.94L32.17 7.94Q31.99 7.90 31.75 7.90L31.75 7.90L31.75 7.90Q31.23 7.90 30.77 8.13L30.77 8.13L30.77 8.13Q30.31 8.36 30.10 8.67L30.10 8.67L30.10 13.51L28.76 13.51Z"></path></g><!----><g data-v-423bf9ae="" id="0e28e522-5315-481f-85ba-1cb36eea1ab0" transform="matrix(2.994410458179972,0,0,2.994410458179972,0.08943266912044834,-1.9385669710569857)" stroke="none" fill="#ffffff"><path d="M17.572 23.933l4.106 7.095L32 13.189h-8.981V7.582L11.51.972 0 7.582v13.222l11.51 6.611 6.062-3.482zm10.96-8.744l-6.855 11.846-6.855-11.846h13.71z"></path></g><!----></svg>